<?xml version="1.0" encoding="UTF-8" standalone="no"?>
<svg width="1616px" height="506px" viewBox="0 0 1616 506" version="1.1" xmlns="http://www.w3.org/2000/svg" xmlns:xlink="http://www.w3.org/1999/xlink" xmlns:sketch="http://www.bohemiancoding.com/sketch/ns">
    <!-- Generator: Sketch 3.3.3 (12081) - http://www.bohemiancoding.com/sketch -->
    <title>react-logo</title>
    <desc>Created with Sketch.</desc>
    <defs></defs>
    <g id="Page-1" stroke="none" stroke-width="1" fill="none" fill-rule="evenodd" sketch:type="MSPage">
        <g id="logo-(1)" sketch:type="MSLayerGroup" transform="translate(12.000000, 17.000000)">
            <circle id="Oval" fill="#00D8FF" sketch:type="MSShapeGroup" cx="269.529" cy="237.628" r="50.167"></circle>
            <path d="M269.529,135.628 C336.885,135.628 399.457,145.293 446.636,161.535 C503.48,181.104 538.43,210.768 538.43,237.628 C538.43,265.619 501.389,297.131 440.347,317.356 C394.196,332.647 333.468,340.628 269.529,340.628 C203.975,340.628 141.899,333.136 95.239,317.187 C36.193,297.005 0.628,265.084 0.628,237.628 C0.628,210.986 33.998,181.552 90.043,162.012 C137.398,145.503 201.515,135.628 269.529,135.628 L269.529,135.628 Z" id="Shape" stroke="#00D8FF" stroke-width="24" sketch:type="MSShapeGroup"></path>
            <path d="M180.736,186.922 C214.385,128.574 254.017,79.198 291.656,46.442 C337.006,6.976 380.163,-8.481 403.431,4.937 C427.679,18.92 436.473,66.751 423.498,129.733 C413.688,177.351 390.264,233.945 358.322,289.334 C325.573,346.122 288.072,396.153 250.945,428.606 C203.964,469.674 158.545,484.535 134.76,470.819 C111.681,457.509 102.854,413.898 113.926,355.586 C123.281,306.316 146.758,245.841 180.736,186.922 L180.736,186.922 Z" id="Shape" stroke="#00D8FF" stroke-width="24" sketch:type="MSShapeGroup"></path>
            <path d="M180.821,289.482 C147.075,231.19 124.09,172.195 114.509,123.227 C102.965,64.228 111.127,19.118 134.373,5.661 C158.597,-8.363 204.428,7.905 252.513,50.601 C288.869,82.881 326.201,131.438 358.236,186.774 C391.08,243.507 415.697,300.983 425.272,349.356 C437.389,410.569 427.581,457.34 403.819,471.096 C380.762,484.444 338.57,470.312 293.58,431.597 C255.567,398.886 214.898,348.344 180.821,289.482 L180.821,289.482 Z" id="Shape" stroke="#00D8FF" stroke-width="24" sketch:type="MSShapeGroup"></path>
        </g>
        <path d="M895.56,350 L827.16,246.64 C861.74,243.6 892.9,218.52 892.9,172.92 C892.9,126.18 859.84,96.54 813.48,96.54 L711.64,96.54 L711.64,350 L743.18,350 L743.18,249.3 L793.72,249.3 L858.32,350 L895.56,350 Z M809.68,221.56 L743.18,221.56 L743.18,124.66 L809.68,124.66 C839.7,124.66 860.22,144.42 860.22,172.92 C860.22,201.42 839.7,221.56 809.68,221.56 L809.68,221.56 Z M1012.98,354.56 C1043,354.56 1067.7,344.68 1085.94,326.44 L1072.26,307.82 C1057.82,322.64 1036.54,331 1015.64,331 C976.12,331 951.8,302.12 949.52,267.54 L1098.1,267.54 L1098.1,260.32 C1098.1,205.22 1065.42,161.9 1009.94,161.9 C957.5,161.9 919.5,204.84 919.5,258.04 C919.5,315.42 958.64,354.56 1012.98,354.56 L1012.98,354.56 Z M1069.98,246.64 L949.52,246.64 C951.04,218.52 970.42,185.46 1009.56,185.46 C1051.36,185.46 1069.6,219.28 1069.98,246.64 L1069.98,246.64 Z M1287.34,350 L1287.34,223.84 C1287.34,179.38 1255.04,161.9 1216.28,161.9 C1186.26,161.9 1162.7,171.78 1142.94,192.3 L1156.24,212.06 C1172.58,194.58 1190.44,186.6 1212.48,186.6 C1239.08,186.6 1258.84,200.66 1258.84,225.36 L1258.84,258.42 C1244.02,241.32 1223.12,233.34 1198.04,233.34 C1166.88,233.34 1133.82,252.72 1133.82,293.76 C1133.82,333.66 1166.88,354.56 1198.04,354.56 C1222.74,354.56 1243.64,345.82 1258.84,329.1 L1258.84,350 L1287.34,350 Z M1208.3,334.04 C1181.7,334.04 1163.08,317.32 1163.08,294.14 C1163.08,270.58 1181.7,253.86 1208.3,253.86 C1228.44,253.86 1247.82,261.46 1258.84,276.66 L1258.84,311.24 C1247.82,326.44 1228.44,334.04 1208.3,334.04 L1208.3,334.04 Z M1425.28,354.56 C1458.72,354.56 1478.48,340.88 1492.54,322.64 L1473.54,305.16 C1461.38,321.5 1445.8,329.1 1426.8,329.1 C1387.66,329.1 1363.34,298.7 1363.34,258.04 C1363.34,217.38 1387.66,187.36 1426.8,187.36 C1445.8,187.36 1461.38,194.58 1473.54,211.3 L1492.54,193.82 C1478.48,175.58 1458.72,161.9 1425.28,161.9 C1370.56,161.9 1333.7,203.7 1333.7,258.04 C1333.7,312.76 1370.56,354.56 1425.28,354.56 L1425.28,354.56 Z M1578.8,354.56 C1595.52,354.56 1605.78,349.62 1613,342.78 L1604.64,321.5 C1600.84,325.68 1593.24,329.1 1585.26,329.1 C1572.72,329.1 1566.64,319.22 1566.64,305.54 L1566.64,191.54 L1603.88,191.54 L1603.88,166.46 L1566.64,166.46 L1566.64,116.3 L1538.14,116.3 L1538.14,166.46 L1507.74,166.46 L1507.74,191.54 L1538.14,191.54 L1538.14,311.62 C1538.14,338.98 1551.82,354.56 1578.8,354.56 L1578.8,354.56 Z" id="React" fill="#00D8FF" sketch:type="MSShapeGroup"></path>
    </g>
</svg>