<?xml version="1.0" encoding="utf-8"?>
<!-- Svg Vector Icons : http://www.onlinewebfonts.com/icon -->
<!DOCTYPE svg PUBLIC "-//W3C//DTD SVG 1.1//EN" "http://www.w3.org/Graphics/SVG/1.1/DTD/svg11.dtd">
<svg version="1.1" xmlns="http://www.w3.org/2000/svg" xmlns:xlink="http://www.w3.org/1999/xlink" x="0px" y="0px" viewBox="0 0 1000 1000" enable-background="new 0 0 1000 1000" xml:space="preserve">
<metadata> Svg Vector Icons : http://www.onlinewebfonts.com/icon </metadata>
<g><path d="M844.9,347.8c-28.6-1.9-123.3,14.7-173.2,19.1c3.8-28,13.2-54.2,26.4-102.2c14.2-51.9,37.1-102.8,29.4-163.1C714.6-0.8,597.1-26.6,561.8,72c-2.5,7.1-50,121.4-50,121.4c-38.6,62.8-39.5,75.4-133.1,142.4c-80.6,57.7-97.6,73.3-112.3,85.5c-10.1,8.4-21,24.6-21,37.7v415.5c0,13.9,6.7,26.9,17.9,35c61.8,44.5,279.5,80.6,389,80.6c56.9,0,89,1.5,133.8-23.5c24-13.3,27-33.9,38.7-44.7c54.8-51.1,38.9-119.9,52.3-133.4c62.2-63,49.4-139.2,58.1-159.7c24.8-58.7,15.4-57,26.5-97.5C999.2,394.4,941.6,354.1,844.9,347.8L844.9,347.8z M96.8,383.9c-38.7,0-70.1,31.4-70.1,70.1v424.1c0,38.7,31.4,70.1,70.1,70.1c38.7,0,70.1-31.4,70.1-70.1V454C166.9,415.3,135.5,383.9,96.8,383.9L96.8,383.9L96.8,383.9L96.8,383.9z"/></g>
</svg>
