<svg width="80" height="80" xmlns="http://www.w3.org/2000/svg"><g fill="none" fill-rule="evenodd"><path fill="#00C1B2" d="M0 0l80 80V0z"/><path d="M64.29 18.3l3.04-3.9c-3.523-2.428-6.458-3.556-8.807-3.383-2.965.016-8.26.851-9.336 7.165-.217 3.692 1.222 6.318 5.744 7.824.519.173 1.322.487 2.41.942 3.42 1.008 4.88 2.364 4.386 4.067-.447 1.694-2.27 2.201-5.47 1.523l-4.966-2.214L48 34.373c3.178 2.105 6.234 3.293 9.17 3.563 4.405.406 9.918-1.008 10.83-7.836-.085-3.782-1.432-5.29-5.286-7.08-3.854-1.789-7.19-2.508-7.552-3.904-.363-1.396.7-2.768 2.588-2.944 1.921-.098 4.1.611 6.54 2.128z" fill="#FFF"/></g></svg>
