<svg viewBox="0 0 500 500" xmlns="http://www.w3.org/2000/svg"><g fill="none" fill-rule="evenodd"><path fill="#f5da55" d="m0 0h500v500h-500z"/><g transform="matrix(.93969-.34202.34202.93969-32 244.8)" fill="#000"><path d="m465.93 6.232c-1.37 6.232-3.596 10.843-6.593 13.916l-2.14-1.366c2.312-5.891 3.425-9.306 3.339-10.16l-.599-.939c-.771.085-1.798 2.134-3.082 6.232l-1.113.085c-.086-.768-.257-1.366-.599-1.964l-.514.085c-10.1 28.09-14.641 41.15-23.973 62.751-1.712 5.549-3.168 8.623-4.452 9.221.086.598.428.939 1.113.854.257 2.732-.428 5.379-1.884 8.03-4.367 12.379-7.192 19.209-8.647 20.405l.942 5.891c.086.598-.257 1.025-.942 1.025l-1.027.085c-.171-1.622-.771-2.391-1.798-2.305l-.514.085c-1.284 2.049-2.312 4.44-2.997 7.172l1.027-.085c1.37-.854 1.969-1.878 1.884-3.159l2.055-.171 1.113.427c-.942 1.451-1.37 2.647-1.284 3.5l.514.939-1.284 3.074.086.512c1.199-.085 2.483.256 3.853 1.11.942-.085 1.969-.512 3.082-1.195 1.199-.085 5.48-.171 13.01-.171l3.767-1.281c4.623-.085 5.308.085 9.332-.256l1.627-.171.856-.598.086.512c4.11-.342 4.452-.085 7.706.342l.086.512-2.312.171.086.939c.685-.085 1.284-.256 1.798-.683.599-.085.942.256 1.027.939-.942.085-1.969.342-3.168.683l-1.027-.342c-1.627.427-1.284.512-2.312.598l-1.627-.342c0 .256-.086.427-.342.512.086.598.342.939.942.854l1.969-.171-.856-.342c0 .256.171.427.514.427l8.476-.768 3.253-.683c0 .256.171.427.428.427l1.541-.598 2.911-.256c2.312-.171 2.226-.342 7.106-1.11 0-.256.086-.427.342-.427v.427c9.332-1.537 8.476-1.451 10.445-2.134l-.428-1.025c-2.654.598-2.569.256-3.938.427l-7.106.342-.086-.512 3.938-.512 1.456-.085.771-.598.086.512c5.565-.512 7.534.939 33.477-4.525 1.37-.085 1.284-1.281 2.14-3.671-.514 0-.942-.085-1.37-.342-2.14.854-3.253.427-7.363 1.11-.342 0-.599-.256-.771-.939v-.427l3.938.171c.685-.085 2.226-.171 4.281-1.366.428.256-.342.512.086.427l.685-.085c.428 0 .599-.342.599-1.025l-.428-.939c-2.654.256-3.938.342-6.079 1.537l-.086-.512-3.253.342c-.086-1.025-.342-1.451-.771-1.451l-1.712.171c-1.969.171-2.911.085-3.853.854 0-.342-.171-.512-.342-.512l-1.884.171-1.113.598c0-.342-.171-.512-.342-.512l-.685.598-.086-.512-2.569-.171-.599.085.086.939 1.37.342 1.199-.085c.428.256.942.342 1.456.342l1.113-.512v.427c-6.079 1.537-6.079 1.195-10.274 1.964-.514-.342-.856-.427-1.027-.427-.428.427.514.085.257.085-.685.085-1.027-.256-1.113-.854l2.14-.256c.171 0 .257.171 1.456.427 1.712-.854 1.798-1.195 2.74-1.281l-.086-.939c-5.993 1.195-3.596.427-11.13 1.025h-.342l-.086-.939c9.675-1.195 6.421-.512 9.675-1.451 0 .342.171.512.342.512.342-.342.856-.598 1.37-.598l.685-.085c3.339-.256 4.538.427 11.216-1.451v.427l1.113-.512 1.027-.085c-.086-1.025 1.456-1.11 1.884-1.195l-.086-1.025c-11.73 2.391-14.812 1.708-18.07 2.647v-.427c-3.082.598-3.168.256-3.938.342-.257 0-.599.256-.942.598 0-.342-.171-.512-.428-.512-.514 0-.257.171-.685.598l.685-.598-10.189 1.622c0-.256-.171-.427-.428-.427-5.137 1.11-3.767 1.281-10.702 1.878-.342 0-.771.171-1.284.512 0-.256-.171-.427-.514-.427l-4.281.342-2.825.683c0-.256-.171-.427-.514-.427-1.627.427-2.997.683-4.11.768h-.086c-.685.085.342-.171-.171-.427l-.856.512c-1.284.085-.599-.085-4.88 0-7.534.939-6.678 1.025-7.534 1.11l-2.825-.171c0 .256-.086.427-.428.512-3.168-.427-4.795-.939-4.88-1.537.428-2.988 1.113-4.525 2.226-4.696l.514-.085-.514 1.025.514-.085c1.027-.512 1.456-1.025 1.456-1.537l-.086-1.025-1.027.085-.086-.939c-.086-.768 0-1.366.257-1.964l2.312-3.671.086.939 1.113-.085-.086-.939-.599-.939c.771-.683 1.456-1.11 1.969-1.11l-.086-.512-1.456.085-.086-1.451c2.911-6.147 4.367-9.733 4.281-10.672l1.027.427c.685-.085 1.027-.427.942-1.11l-1.027.085v-.427c-.086-.768.086-1.451.342-2.049 1.627-1.622 2.312-3.33 2.14-5.123.342 0 .514.171.514.512 1.37-.768 2.397-2.817 3.168-6.232 2.397-4.354 5.822-13.06 10.274-26.04 8.562-22.966 8.219-25.442 9.418-30.82l-1.027.085c.086.683-.086 1.366-.428 1.964-.685-.256-1.284-.427-1.627-.427v-.427c-.171-1.964.685-4.354 2.569-7.172h.428l.856 3.33 1.027-.085c0-.256.257-1.537.771-4.01-.086-.512-.428-.768-1.199-.854l-.942.598c-.086-.683 0-2.476.086-5.464l-.942.171m-12.329 14.77l.514-.085c-.771 1.366-1.37 2.134-1.969 2.22l-.086-1.451c.428-.085.942-.256 1.541-.683m-4.281 10.245c1.027-4.183 2.055-6.574 2.997-7.172l.086.512c-.514 3.927-1.37 5.891-2.569 6.06l.171 2.476c-.942 1.281-1.37 2.305-1.284 3.074l-.514.085-.257-3.415c.514-.085 1.027-.598 1.37-1.622m-1.627 5.549c.086.598-.342 1.964-1.113 4.01l-.514.085-.086-1.451c.599-1.708 1.199-2.561 1.712-2.647m-28.17 62.07l.514.939c.771-.085 1.113-.427 1.027-1.025l-.086-.512-.514.085-.942.512m13.528 11.184v.427c.771-.085 1.541-1.451 2.226-4.098l-1.027-.342c-.856 2.305-1.199 3.586-1.199 4.01m86.65 2.988v.427l-.856 1.025 1.627-.598h.171l-.086-.939h-.342l-.599.512c0-.256 1.798-.768.428-1.025-.257.427.428.512-.342.598m3.339 3.074l2.312-.171c-.086-.598-1.541-.768-2.055-.768h-.342l.086.939m-40.925.854l.685.854c0-.256.086-.427.342-.427l.514.939-2.14-.256c-.171-.683.086-1.025.599-1.11m-7.02.768c.771-.085 1.284.427 1.284 1.11h-2.397v-.427c.257-.085.685-.256 1.113-.683m5.48-.256l.086.512-1.969.171-.086-.512 1.969-.171m-19.863 2.049c0 .256.171.427.514.427 3.168-.598 2.825-.683 4.367-.854.514-.085.771.256.856.854l-8.819.768.856.427-.086-.512-3.339.256-.086-.512 2.997-.256 2.74-.598m9.08-.768v.427c-.257 0 .856.085.342.512-1.884-.171-1.969-.342-3.339-.256v-.427l2.997-.256m2.226-.256v.427l-1.627.171v-.427l1.627-.171m-54.796 8.708l.086 1.451c-.514.085-.942-.256-1.113-.939v-.427l1.027-.085m73.29-1.281l.086.939 1.712-.171-.685-.427.086.512 1.712-.683c11.73-1.281 13.1-.768 12.928-2.134v-.427c-11.815 2.647-13.356 2.134-15.839 2.391m18.322-1.622l1.712.342-.086-.939-1.712-.342.086.939m-50.686 3.33c.514.256-.599.512.086.427l5.993-.512.086.512c-1.712.171-2.825.427-3.168.768 0-.342-.171-.512-.514-.512l-2.569.256-.086-.512c.685-.085-.342-.085.171-.427m27.74-.683l.514.939c1.969-.427.856-.342 1.37-.768 0 .342.171.512.342.512l1.37-.085-.086-1.025-3.596-.085.086.512m-33.905 3.671h-.342l-.086-.939h.342l.086.939m-26.798 3.244l.086.512 15.754-1.281-.086-.939-12.586 1.025-2.654-.342-.514 1.025m17.552-.939h.171l-.086-.939h-.171l.086.939"/><path d="m203 50.46c-11.13 13.233-16.867 20.49-17.295 21.941-4.538 4.696-6.764 7.513-6.507 8.452-1.199.768-1.712 1.537-1.541 2.391-.342.085-.599-.085-.685-.427-1.969 3.159-4.795 5.123-8.647 6.06l-4.02.939c-.514.085-.771.512-.771 1.195l.086.512 1.541-.342.086.427-3.425 1.281-6.079 1.366-3.168.171c-.428.427 2.483-.085 1.37.256l-3.938.939c-2.397.598-3.767.342-3.938-.598l-.428.085c.257.939 0 1.537-.685 1.708l.771-.171-.342-1.451-7.192 1.708.771.342c-.086-.342-.428-.427-1.113-.256l-.942.768-1.113-.256c-1.027.598-1.712.939-1.884.939l-1.113-.256c-2.997 1.708-.771 1.708-.942 1.708l.257.939 1.712-.427 2.654-.171-.257 1.11c-9.76 2.561-2.654 1.11-5.308 1.708l-.514.085.257.939 1.541-.342.086.512c-1.969.427-3.082.854-3.425 1.281l-.086-.512c-2.569.598-5.137 2.561-7.706 5.806.428 1.878-5.137 4.183 21.06-1.878 1.798-.085 2.825-.085 3.082-.171-.086-.342.086-.512.428-.598 2.911-.342 1.541.171 3.339-.256l5.651-1.281-1.199.683c-.086-.256.086-.427.342-.512.685.171 1.37.085 2.14-.085l.342 1.451-22.346 35.35-4.966 6.147-2.397 8.111.428-.085 2.397-1.025-.771 3.159.257.939.685.854c-.342.085-.428.256-.342.598l.086.512 1.027-.256c1.456-1.281 2.055-2.476 1.884-3.5 1.627.256 2.654.342 3.168.256l.086.512c-.942.256-1.456 1.025-1.541 2.305l.086.512.514-.085c8.134-8.794 27.912-38.931 43.836-59.42-.514-2.22 7.791-5.293 24.915-9.221l.514-.085c.599 2.647-.685 9.135-3.938 19.466-2.14 6.232-3.082 9.647-2.997 10.16-2.74 8.281-4.02 12.721-3.853 13.404l-6.079 19.807c-3.938 10.16-6.935 20.832-8.99 32.1.342-.085.942 0 1.627.171l.856-.768c.086.342.257.427.685.427l-.342-1.451 2.654-.085c.771-.171 1.456-1.195 1.969-2.988-.086-2.647.428-4.098 1.627-4.44 1.627-6.318 2.654-9.562 2.997-9.647 1.541-6.318 2.654-9.904 3.425-10.843 2.312-8.196 3.938-12.465 5.05-12.721l.257 1.025-1.627 4.354c-2.911 12.892-5.908 23.14-8.904 30.65l.856 3.757.514-.085c7.278-15.538 17.637-46.27 31.25-92.21.428-4.01 2.312-7.172 5.822-9.391l-.771-.768-.086-.427c1.541-.342 2.654-.939 3.253-1.793-.086-.342-1.456-.854-4.11-1.537l8.05-34.32c2.397-10.245 4.02-19.209 4.88-27.06l-.086-.512c-1.627-1.025-3.253-2.476-4.709-4.354v-2.049l-.086-.427-.428.085c-4.966 7.513-14.898 20.575-29.538 39.19m11.387 7.769c.428 1.793-.257 5.123-1.969 9.989-.514 6.147-2.74 9.647-6.593 10.587l-.086-.512-3.425 1.281-1.541.342c-.771.171-1.456.171-2.14-.085l-.342-1.366c-.086-.512 4.795-7.342 14.898-20.405l1.199.171m-7.877 21.344l1.113-.256.257.939c-5.394 1.622-8.391 2.476-8.99 2.647-.342.085-.856.342-1.456.854-.086-.342-.771-.342-2.14-.085-.257-.939 3.51-2.305 11.216-4.098m-53.17 14.343l1.199-.256-.257-1.025-1.199.256.257 1.025m15.668-4.098l.257.939-2.569.171-.086-.512 2.397-.598m-29.966 9.818l.086.512-1.627.342-.086-.512 1.627-.342m-2.997 6.232l.086.427-1.969.427-.257-.939 2.14.085m4.709-1.025l.086.427-3.596.854-.086-.427 3.596-.854m6.25-1.025l.086.512-9.418 2.134-.257-.939c5.48-.939 4.88-.598 9.589-1.708m47.18-10.928l.771.854c-1.113.256-1.969.598-2.397 1.025l-1.113-.171c-1.712.683-3.253 1.195-4.452 1.451l-1.027.256c-.599.171-1.027-.085-1.284-.683l7.106-1.622 2.397-1.11m5.05-1.11l5.05-1.195.086.512c-2.74.598-4.88 1.281-6.421 2.049l-.086-.512c.428-.085.856-.427 1.37-.854m-53.08 14.343l2.397-.512.257.939c-1.027.256-.257.256-1.541.854-2.483.256-1.969-.085-5.908.854l-.086-.512 4.88-1.622m6.507-1.11c.685-.171 1.113.085 1.199.768l-1.456.342c-.599.171-1.027-.085-1.284-.768l1.541-.342m-26.798 53.957l.086.512c.685-.171.942-.512.771-1.195l-.086-.512c-.599.171-.856.512-.771 1.195m2.055 8.538c.171.598.514.854 1.199.683.685-.171.942-.512.771-1.195l-.086-.512-1.027.256-.856.768m54.624 14.685c.685-.171 1.027.085 1.199.683l.086.512-1.969.427c.171-.683.171-1.195.086-1.537l.599-.085"/><path d="m261.82 24.25c-4.452 3.159-9.504 6.403-15.15 9.562l.086.939c.342 0 .856-.256 1.541-.683.685-.085 1.027.256 1.113.854l.942-.512h.428v.427c.086.512-3.51 3.244-10.531 8.196l.514 1.025h-.428l-1.113-.427c0 .342-.428.598-1.456.683v.427l1.113 1.366c-.342 0-.942-.085-1.627-.427-2.312.171-4.538 1.878-6.764 4.952l.514.939c1.969-1.793 3.082-2.732 3.425-2.732l.086 1.451c-.342 0-.856.256-1.541.683l1.284 1.793c2.312-2.561 4.88-4.696 7.62-6.489 1.37.427 2.14.854 2.14 1.281l1.027-.085c7.706-5.635 15.24-9.647 22.689-12.12l.086.939c-1.37 2.049-2.312 3.074-2.825 3.159.086.683.257 1.281.599 1.878.086 1.281-3.253 9.818-10.1 25.613-15.668 36.626-28.768 63.775-39.38 81.36 0 .342.257.854.685 1.451 2.654-.598 4.281-1.281 4.966-1.878h.428l.086.939 1.113-.085.942-.512c0 .256.342.427 1.027.342l.086 1.025c.086.939-.514 2.391-1.627 4.44-1.113 1.195-2.312 3.757-3.51 7.598l.086.512 1.027-.085c4.281-4.781 7.449-9.391 9.675-14 12.415-3.671 21.833-7.172 28.425-10.672 6.678-.598 11.644-2.305 15.07-5.123l-.086-.512-2.569.768-.514.085-.086-.512c4.88-.683 8.219-1.793 10.02-3.244 9.418-7.257 16.524-12.379 21.405-15.368 14.898-10.928 21.918-21.344 21.06-31.418-.086-1.025-3.339-5.123-9.846-12.294-.086-1.366 2.14-3.33 6.678-5.891l13.01-11.27c2.911-3.671 4.623-9.647 5.137-17.929l-.171-1.878c-.514-5.72-4.709-10.33-12.586-13.916-4.709-3.159-13.1-4.866-25.17-5.208-9.76.683-22.86 4.269-39.04 10.587m69.69.683l-.514 1.025-14.384-6.06c9.675.427 14.641 2.049 14.898 5.04m-58.39 39.956c1.027-5.379 2.14-8.367 3.339-9.05l10.874-24.25c-.086-1.451 2.14-2.647 6.849-3.5l1.541-.171.086 1.451c4.623-.768 7.449-1.195 8.647-1.281 8.562-.768 13.01 1.025 13.356 5.123l1.027-.085-.171-2.305 1.027-.085c2.483 1.366 3.767 2.988 3.938 4.952.086 1.366-.599 3.074-2.055 5.123-.685.085-1.027-.427-1.113-1.366l-1.027.085-.342 2.903c-4.367 6.574-7.449 9.904-9.418 10.07-1.712 2.391-2.825 3.586-3.339 3.586-1.37 1.622-5.05 4.44-11.13 8.281-2.055.171-9.504 3.074-22.432 8.708-.599-.256-1.37-.342-2.055-.256l-.086-.939c-.171-1.793.685-4.098 2.483-7m59.761-29.881l.086 1.025c-.514 0-1.456-1.537-2.997-4.61l-.086-.939c.942-.085 1.969 1.451 2.997 4.525m-94.86 11.611l.086.512c-.342 0-.856.256-1.541.598h-.428l-.086-.939 1.969-.171m31.422-.768l.086 1.451c-.514 0-1.113.768-1.884 2.049l-.086-.939c.856-1.11 1.284-1.964 1.284-2.561h.599m-4.88 10.07l.171 1.878-.514.085-.171-1.878.514-.085m-1.199 3.5c-.086 1.622-.514 2.476-1.284 2.561l-.514.085c.599-1.11.856-1.964.771-2.561l1.027-.085m-2.226 5.04l.086.512-.856 1.537-1.027.085-.086-.512c1.027-.085 1.541-.598 1.456-1.622h.428m-2.14 4.525l-.342 2.476h-.428l-.171-2.476h.942m52.741 1.793l2.14 1.281c.086.598-.257 1.025-.942 1.025-.942-.598-1.627-.854-2.14-.768v-1.451l.942-.085m-41.27 5.464l.086.939-2.055.171-.086-.939 2.055-.171m33.31 3.5c1.456.683 2.14 1.281 2.226 1.793v.427c-1.37.085-2.654-.598-3.853-2.134l1.627-.085m-42.895 10.501c5.822-.512 14.983-3.244 27.569-8.196l3.168-.256c6.336-.512 11.04.683 14.213 3.671l.171 1.878c-2.312 6.659-4.88 10.587-7.706 11.782l-12.928 10.416c-9.675 6.318-14.898 9.477-15.754 9.562-15.411 8.452-25 12.806-28.768 13.148l-.514.085c.342-1.793 7.192-15.794 20.548-42.09m13.956-5.549l.086.512-2.055.171-.086-.512 2.055-.171m46.662-2.134l.342 3.927c-.514.939-.942 1.451-1.456 1.537l-.599-6.659c1.113.342 1.712.768 1.712 1.195m-79.03 33.467c-.685 3.244-1.37 4.952-2.055 4.952v-.427c-.257-1.537.428-3.074 2.055-4.525m12.928 18.27c3.767-.683 14.13-6.06 31.08-16.221l.086.939c0 .427-1.37 1.708-4.367 3.757-8.562 4.269-13.699 7.086-15.24 8.538-9.332 3.244-13.956 5.293-13.87 6.06-8.305 3.244-13.699 5.635-16.353 7.172-.599.085-1.541-.171-2.654-.768-.171-1.708.599-2.988 2.226-4.01 1.456-.085 2.825.085 4.11.598 1.541-.768 4.195-1.622 8.05-2.647l-.086-.939-3.168.256c.342-.598 3.339-1.964 8.904-4.183l1.541-.171v.427c-2.654.256-4.11 1.025-4.452 2.391.086.598.428.939 1.113.854 2.14-1.025 3.082-1.793 3.082-2.049m-16.01-11.696v.427c.086.683-.257 1.11-.942 1.11l-.086-.512c0-.427.342-.854 1.027-1.025m24.316 6.659c-1.199.085-3.51 1.11-6.935 2.988l-.514.085-.086-.939c2.483-.256 4.709-1.195 6.421-2.903.685-.085 1.027.171 1.113.768m-25.17 7l1.541-.171.086.512c-.342 0-.856.256-1.541.598l-1.027.085c-.086-.512.257-.854.942-1.025m-10.36 5.72l1.027.427c-.342 2.988-1.284 4.525-2.654 4.61-1.199-.512-2.226-.768-3.168-.683l-.086-1.451c-.086-.512.257-.854.942-1.025.685-.085 1.027.427 1.113 1.366 1.712-2.134 2.654-3.244 2.825-3.244"/><path d="m60.28 19.978c-5.822 4.269-12.5 8.452-19.949 12.55l.086 1.281c.514 0 1.113-.342 1.969-.768.856-.085 1.37.256 1.37 1.11l1.37-.768.685-.085.086.598c.086.598-4.623 4.269-13.956 10.843l.771 1.195-.685.085-1.456-.512c0 .427-.599.683-1.969.768l.086.683 1.541 1.708c-.514 0-1.199-.085-2.055-.427-2.997.256-5.993 2.476-8.904 6.574l.771 1.195c2.569-2.305 4.02-3.5 4.452-3.5l.171 1.878c-.428 0-1.113.342-1.969.768l1.627 2.391c3.082-3.33 6.421-6.147 10.189-8.452 1.884.512 2.825 1.025 2.825 1.708l1.37-.085c10.02-7.428 19.949-12.721 29.795-16.05l.086 1.281c-1.798 2.732-3.082 4.098-3.767 4.183.086.939.428 1.708.942 2.476.171 1.708-4.281 12.892-13.356 33.723-20.72 48.32-38.01 84.01-51.97 107.23 0 .427.342 1.11.771 1.878 3.425-.854 5.651-1.622 6.593-2.476l.771-.085.086 1.281 1.284-.085 1.37-.768c0 .427.514.598 1.37.512l.086 1.281c.086 1.281-.599 3.244-2.226 5.891-1.456 1.622-2.911 4.952-4.538 9.989l.086.598 1.284-.085c5.565-6.232 9.846-12.379 12.757-18.356 16.353-4.781 28.768-9.477 37.415-14.09 8.647-.768 15.326-2.988 19.778-6.745l-.086-.683-3.253.939-.771.085-.086-.683c6.336-.939 10.788-2.391 13.185-4.269 12.415-9.562 21.747-16.307 28.08-20.319 19.607-14.343 28.853-28.17 27.74-41.32-.086-1.366-4.452-6.745-12.928-16.14-.171-1.793 2.825-4.354 8.819-7.769l17.04-14.941c3.767-4.866 6.079-12.721 6.849-23.564l-.257-2.561c-.685-7.598-6.165-13.745-16.61-18.441-6.165-4.183-17.209-6.403-33.13-6.659-13.1 1.195-30.394 5.806-51.628 14m91.78 1.11l-.514 1.281-19.01-7.94c12.671.512 19.18 2.732 19.521 6.659m-76.885 52.591c1.284-7 2.74-11.01 4.367-11.953l14.213-31.845c-.171-1.964 2.825-3.5 9.08-4.525l2.055-.171.171 1.793c6.165-.939 9.932-1.451 11.387-1.622 11.302-.939 17.12 1.281 17.637 6.83l1.284-.085-.257-3.244 1.37-.085c3.339 1.793 5.137 4.01 5.308 6.659.171 1.793-.771 4.01-2.911 6.659-.856.085-1.37-.512-1.456-1.793l-1.37.085-.342 3.842c-5.736 8.538-9.846 12.892-12.415 13.148-2.312 3.159-3.767 4.781-4.367 4.866-1.798 2.134-6.678 5.806-14.726 10.928-2.654.256-12.5 4.01-29.538 11.44-.856-.427-1.712-.512-2.74-.427l-.086-1.195c-.171-2.476.856-5.549 3.339-9.306m78.68-39.27l.086 1.195c-.685.085-1.969-1.964-3.853-6.06l-.086-1.195c1.199-.171 2.483 1.878 3.853 6.06m-125 15.197l.086.598c-.428 0-1.113.342-1.969.768l-.685.085-.086-1.195 2.654-.256m41.35-1.025l.171 1.878c-.599.085-1.456.939-2.483 2.732l-.086-1.281c1.199-1.451 1.798-2.561 1.798-3.33h.599m-6.336 13.319l.257 2.561-.685.085-.257-2.561.685-.085m-1.627 4.61c-.171 2.134-.685 3.244-1.798 3.33l-.685.085c.771-1.451 1.199-2.476 1.113-3.244l1.37-.171m-2.825 6.659l.086.598-1.199 2.049-1.284.085-.086-.598c1.284-.085 1.884-.768 1.798-2.049l.685-.085m-2.911 5.976l-.342 3.159-.685.085-.257-3.159 1.284-.085m69.44 2.305l2.825 1.708c.086.854-.342 1.366-1.199 1.451-1.199-.768-2.14-1.11-2.825-1.11l-.171-1.878 1.37-.171m-54.37 7.257l.086 1.195-2.654.256-.086-1.195 2.654-.256m43.836 4.44c1.884.854 2.825 1.708 2.911 2.391l.086.598c-1.798.171-3.425-.768-4.966-2.817l1.969-.171m-56.51 13.831c7.706-.683 19.863-4.269 36.39-10.757l4.02-.342c8.391-.683 14.641.854 18.75 4.781l.257 2.561c-3.082 8.879-6.507 14-10.189 15.624l-17.12 13.575c-12.757 8.367-19.607 12.55-20.634 12.636-20.291 11.184-32.963 16.904-37.843 17.331l-.771.085c.685-2.391 9.675-20.832 27.14-55.49m18.494-7.257l.086.598-2.74.256-.086-.598 2.74-.256m61.47-2.732l.428 5.04c-.599 1.366-1.199 2.049-1.884 2.049l-.771-8.879c1.456.598 2.14 1.195 2.226 1.793m-104.2 44.05c-.856 4.354-1.798 6.574-2.74 6.659l-.086-.598c-.171-2.22.771-4.183 2.825-6.06m17.12 24.08c4.966-.939 18.579-8.111 40.925-21.344l.086 1.195c.086.512-1.884 2.134-5.736 4.952-11.387 5.549-18.07 9.391-20.03 11.355-12.329 4.269-18.408 6.915-18.322 7.94-10.959 4.354-18.15 7.513-21.576 9.477-.771.085-1.969-.256-3.51-.939-.171-2.22.771-4.01 2.997-5.464 1.884-.171 3.767.085 5.48.854 2.055-1.025 5.565-2.22 10.617-3.415l-.086-1.281-4.02.342c.514-.683 4.367-2.476 11.73-5.464l2.055-.171.086.598c-3.425.256-5.394 1.366-5.822 3.159.086.768.514 1.195 1.37 1.11 2.483-1.708 3.767-2.647 3.767-2.903m-21.06-15.453l.086.598c.086.854-.342 1.366-1.199 1.451l-.086-.598c-.086-.768.342-1.281 1.199-1.451m32.02 8.708c-1.627.171-4.623 1.451-9.161 4.01l-.685.085-.086-1.281c3.253-.256 6.079-1.537 8.391-3.842.942-.171 1.456.256 1.541 1.025m-33.22 9.221l2.055-.171.086.683c-.514 0-1.113.342-1.969.768l-1.284.085c-.086-.598.257-1.11 1.113-1.366m-13.613 7.598l1.456.598c-.514 3.842-1.627 5.806-3.596 5.976-1.541-.683-2.911-.939-4.195-.854l-.171-1.878c-.086-.768.342-1.195 1.284-1.451.856-.085 1.37.512 1.456 1.793 2.312-2.817 3.596-4.183 3.767-4.183"/><path d="m395.73 7.428l-1.113-.427-18.237 2.817c-.685-.342-1.541-.512-2.483-.427-1.027.085-2.569.427-4.88 1.025l-8.819 3.671.685 1.11c.428 0 1.027-.256 1.798-.683l3.082.256-.428 2.903c-2.825 1.281-4.538 3.159-4.966 5.635-4.281 1.878-6.421 3.244-6.421 4.098l.086.512.685-.085 1.199-.598 1.37 1.622.171 2.22c.086.683-7.192 15.965-21.747 45.761-12.586 28.686-19.18 44.4-19.863 47.21-4.281 1.195-6.849 2.988-7.534 5.293.086.768 1.37 1.195 3.853 1.451l.086 1.11-1.113 1.878.171 2.22c.086 1.195 3.253 2.049 9.418 2.732 0-.427.171-.598.599-.683.086 1.366-.257 4.098-1.199 8.196l.685-.085c2.569-3.5 3.767-5.891 3.682-7.257l.514-.085c.599-.085 1.284.683 2.055 2.22-.771.342-3.51 6.489-8.134 18.526l.685 1.11.685-.085c5.736-14.428 9.332-22.454 10.788-23.99 7.534-.683 20.463-1.964 38.956-3.927l1.113-.683c0 .427.257.598.685.512l1.199-.085 1.113-.683c0 .427.257.598.685.512l13.956-1.195c3.682-.342 5.48-1.451 5.308-3.33-.086-.512 2.14-1.11 6.593-1.708.428 0 1.027.085 1.884.342 0-.342 2.14-.683 6.593-1.11.086-2.305.856-3.586 2.226-3.671l-.086-1.11c-1.199.085-2.654.427-4.281.939-2.911-.171-4.795-.342-5.565-.683-.771.427-1.37.683-1.798.683l-9.76.342-1.199.598c0-.342-.257-.512-.685-.427l-.514.085-1.284.598c0-.342-1.027-.598-3.082-.854l-1.199.683-2.397.171-.086-.598c12.5-1.366 18.75-3.074 18.579-5.123.771-.085 1.199.342 1.284 1.11l3.682-.939-.086-1.11-29.966.854c0 .427-.171.598-.599.683l-3.682-.342c-.942.085-1.712.342-2.312.854l-1.37-.512c-3.767.342-6.593.768-8.476 1.366-2.569-.171-5.394-.171-8.562.085l-6.764.598-3.082-.342c-.171-1.964 3.682-11.696 11.644-29.2 2.312-5.891 4.452-9.562 6.421-10.928.428 0 1.027.085 1.884.427l4.795-1.622 2.483.427c4.11-.342 8.904-1.537 14.384-3.5 1.37-.085 2.397 0 3.082.256l3.682-.854 10.874-.939c4.623-.427 9.675-1.451 15.07-3.074l-.086-1.11c-2.055.171-3.082-.171-3.168-.939-.171-1.537-1.627-2.134-4.452-1.878l-.086-1.11 2.997-.854 7.877-.683-.086-1.11c-.342 0-1.884 0-4.88-.085l-.086-1.195 3.082-.256c.771-.085 1.199-.512 1.113-1.195-4.11.085-6.165-.085-6.165-.598-28.511 1.366-42.723 1.622-42.809.768-.428 0-1.027.256-1.798.768l-.771-1.195c7.534-15.965 11.987-24.08 13.271-24.16.086.598-.257 1.622-.942 2.988l.086.512 1.199-.085c2.997-7.172 5.48-10.843 7.62-11.01 8.904-.768-1.284-1.366 17.894-4.354.771.342 1.37.512 1.712.427 7.534-1.537 17.98-3.074 31.422-4.696l-.086-1.11-7.192.683-.086-1.11c.856-.085 1.541-.342 2.14-.854l.086.598c.428 0 .942-.256 1.627-.768 1.199-.085 2.14 0 2.825.342 2.483-.683 4.452-1.025 5.993-1.195l4.452-.427c1.113-.683 1.627-1.281 1.541-1.878v-.512c-1.113.085-2.397 0-3.938-.256-.086-.598.257-1.025 1.027-1.195l8.305-.768 3.853-.939c0 .427.257.598.514.598.428 0 .942-.256 1.627-.768 1.969.256 3.168.342 3.425.256 1.541-1.451 3.339-2.647 5.308-3.415-.856-.854-1.284-1.537-1.37-2.134l-5.565.512c0-.427-.257-.939-.599-1.708 0-.512 1.199-1.025 3.767-1.537l1.113.427 1.027-.598c0 .342.257.512.599.427l1.027-.598c0 .342.257.512.599.427l.514-.085-.086-1.11c-.771.085-2.825.085-6.079 0l-1.027.683-.086-.598c-26.11 2.134-40.925 3.33-44.44 3.671-.428 0-2.312 0-5.48-.085 0 .427-.342.683-1.113.683l-1.113-.512-3.853.939c-.856.085-2.397 0-4.538-.171-.599.427-1.284.768-2.14.854-.856.085 20.72-1.195 20.03-1.537l-3.339.939-.514.085c-1.37.085-3.082.085-5.137-.171-.599.427-1.456.768-2.74.854-.856.085-1.627-.085-2.226-.427-.942.256-3.682.939-8.305 1.793m1.37 3.415c0 .427.428.598 1.113.512l.086 1.11-1.113.085c-.856.085-1.627-.085-2.226-.427-.599.512-1.37.768-2.14.854h.342l-3.082-.342-.086-.512c3.767-.256 4.966-.683 7.106-1.281m2.825-.256l.599-.085.086 1.11-1.712.171c0-.598.257-1.025 1.027-1.195m6.593-.683l.086.598c-1.284.085-2.911.427-4.88 1.025l-.599.085.514-1.195 4.88-.512m-48.631 5.549l1.884-.171-.086-1.11-1.884.171.086 1.11m13.442-1.195l.685-.085 1.284.512c.086.768-.342 1.195-1.113 1.195l-1.884.171-.086-.598c-.086-.598.342-.939 1.113-1.195m43.07 2.476v.512l-3.853.342v-.512l3.853-.342m-11.04 1.622l.086.598-2.226.171-.086-.598 2.226-.171m10.617.854l7.706-1.281 3.938.171.086.598c-1.884.171-3.51.512-4.88 1.025 0-.427-.771-.768-2.312-.939l-6.079 1.708c-1.199-.683-1.798-1.195-1.798-1.537l3.339.256m-7.62 1.708c.771-.085 1.113.256 1.199 1.025l-3.253.342-.086-1.11 2.14-.256m-6.764-.342l.086.598 20.03-.939-.086-.598-20.03.939m1.199 1.537v.512l-4.367.427v-.512l4.367-.427m-28.682 22.624l.086.598 1.284-.085c0-.427.086-1.025.428-1.793l-.086-1.11c-.685.085-1.284.854-1.712 2.391m-44.09 63.861l.086.512c.086.768-.342 1.195-1.199 1.281l-.086-.512c-.086-.683.342-1.025 1.199-1.281m-1.113 2.391c.086 1.11-.685 3.842-2.226 8.281l-1.884.171c-.086-.768.942-3.5 2.911-8.281l1.199-.171m20.634 17.843c.086.598-.942 1.281-2.911 1.964l-3.767-.256-1.199.085-.086-1.11 7.962-.683m3.682.342l.086.512-3.082.256-.086-.512 3.082-.256"/></g></g></svg>