<?xml version="1.0" encoding="UTF-8" standalone="no"?>
<svg width="722px" height="897px" viewBox="0 0 722 897" version="1.1" xmlns="http://www.w3.org/2000/svg" xmlns:xlink="http://www.w3.org/1999/xlink" xmlns:sketch="http://www.bohemiancoding.com/sketch/ns">
    <title>BackBone.JS</title>
    <description>Created with Sketch (http://www.bohemiancoding.com/sketch)</description>
    <defs></defs>
    <g id="Page 1" fill="#D8D8D8" fill-rule="evenodd">
        <g id="BackBone.JS">
            <path d="M5.68434189e-14,0 L5.68434189e-14,485 L361,690.785021 L361,550.902766 L119.496094,413.235491 L119.496094,197 L361,334.667275 L361,205.785021 L5.68434189e-14,0 Z M5.68434189e-14,0" id="Path" stroke="rgb(132,132,132)" stroke-width="1" fill="#002A41"></path>
            <path d="M722,0 L722,485 L361,690.785021 L361,550.902766 L602.503906,413.235491 L602.503906,197 L361,334.667275 L361,205.785021 L722,0 Z M722,0" id="Path" stroke="rgb(132,132,132)" stroke-width="1" fill="#0071B5"></path>
            <path d="M0,896.785021 L0,411.785021 L361,206 L361,345.882254 L119.496094,483.54953 L119.496094,688.785021 L361,551.117746 L361,691 L0,896.785021 Z M0,896.785021" id="Path" stroke="rgb(132,132,132)" stroke-width="1" fill="#0071B5"></path>
            <path d="M722,896.785021 L722,411.785021 L361,206 L361,345.882254 L602.503906,483.54953 L602.503906,688.785021 L361,551.117746 L361,691 L722,896.785021 Z M722,896.785021" id="Path" stroke="rgb(132,132,132)" stroke-width="1" fill="#002A41"></path>
        </g>
    </g>
</svg>