<?xml version="1.0"?>
<svg width="512" height="512" xmlns="http://www.w3.org/2000/svg">
 <!-- Created with Method Draw - http://github.com/duopixel/Method-Draw/ -->

 <g>
  <title>background</title>
  <rect fill="none" id="canvas_background" height="514" width="514" y="-1" x="-1"/>
 </g>
 <g>
  <title>Layer 1</title>
  <g stroke="null" id="svg_1">
   <path stroke="null" fill="#FA930D" d="m19.33606,259.013458c0,38.185791 31.03344,69.219269 69.21965,69.219269s69.162888,-31.033478 69.162888,-69.219269c0,-38.298721 -30.977119,-69.219559 -69.162888,-69.219559c-38.186211,0.112152 -69.21965,31.145981 -69.21965,69.219559" id="svg_3"/>
   <path stroke="null" fill="#136BA2" d="m432.1745,16.153931c-38.129883,0 -60.771332,30.639179 -60.771332,81.891968l0,315.063812c0,51.252563 22.585114,81.891602 60.601959,81.891602c37.961121,0 60.658813,-30.639038 60.658813,-81.891602l0,-315.063812c0,-51.252789 -22.641357,-81.891968 -60.489441,-81.891968" id="svg_4"/>
   <path stroke="null" fill="#136BA2" d="m325.838989,22.799875l-248.4916,0l0,0.112825c-32.215981,1.182539 -58.01133,27.766609 -58.01133,60.320515c0,32.497429 25.795349,59.137177 58.01133,60.207962l0,0.619415l127.174706,0l0,112.755905l0.168839,0l0.05629,2.084015c0,64.263397 -52.097809,116.135651 -116.078964,116.135651l-3.153961,-0.168945l-0.394501,0.450409l-5.125488,-0.281464c-33.454769,0 -60.545647,26.977844 -60.545647,60.489319c0,33.399017 27.090878,60.264282 60.545647,60.264282l5.407379,-0.281433l0.11261,0.112671l3.09771,0.225067c130.666389,0 237.226982,-106.391846 237.226982,-237.058136l-0.056274,-2.083588l0.056274,0l-0.056274,-38.749634l0.056274,-0.450302l0,-194.704535z" id="svg_5"/>
  </g>
 </g>
</svg>