<?xml version="1.0" standalone="no"?>
<!DOCTYPE svg PUBLIC "-//W3C//DTD SVG 20010904//EN" "http://www.w3.org/TR/2001/REC-SVG-20010904/DTD/svg10.dtd">
<svg version="1.0" xmlns="http://www.w3.org/2000/svg" viewBox="0 0 626.000000 626.000000"
     preserveAspectRatio="xMidYMid meet">
    <g transform="translate(0.000000,626.000000) scale(0.100000,-0.100000)"
       fill="#000000" stroke="none">
        <path d="M2530 6251 c0 -6 7 -53 16 -103 31 -180 -1 -312 -102 -411 -70 -69
    -136 -96 -354 -143 l-25 -6 27 -21 c14 -12 54 -42 88 -67 83 -61 137 -120 168
    -188 25 -53 27 -67 27 -187 l0 -130 135 0 c123 0 139 -2 185 -25 98 -47 187
    -155 214 -257 6 -23 18 -58 27 -78 l15 -37 127 129 c184 186 264 221 481 208
    l119 -7 -30 63 c-37 77 -68 165 -68 192 0 19 6 20 288 14 824 -16 1266 -175
    1308 -469 8 -61 -17 -177 -59 -266 -50 -110 -177 -291 -259 -370 l-34 -32
    -170 171 c-93 94 -176 174 -185 179 -13 7 -54 -29 -195 -170 -98 -99 -184
    -180 -190 -180 -6 0 -54 20 -105 44 -514 241 -1087 273 -1629 90 -133 -45
    -363 -158 -482 -237 -256 -169 -511 -434 -658 -682 -217 -369 -321 -769 -307
    -1180 9 -255 43 -440 122 -665 156 -448 481 -850 890 -1103 254 -157 514 -252
    830 -304 174 -28 476 -24 665 10 235 42 377 88 585 188 159 77 209 107 345
    208 266 196 493 468 641 767 263 534 298 1137 98 1694 -43 121 -81 205 -137
    307 l-40 73 156 157 c86 87 166 168 176 181 l20 23 -149 149 -148 148 62 68
    c262 286 389 607 325 825 -54 186 -194 316 -444 412 -241 93 -630 147 -1056
    147 -121 0 -223 3 -227 6 -10 11 17 55 98 158 42 54 75 99 73 101 -2 1 -30 -1
    -63 -6 -33 -4 -105 -8 -161 -8 -136 -1 -204 22 -284 96 -102 94 -140 209 -123
    373 6 52 9 97 7 99 -2 2 -26 -6 -54 -18 -214 -92 -310 -81 -547 61 -18 11 -33
    15 -33 9z"/>
    </g>
</svg>
