<?xml version="1.0" standalone="no"?>
<!DOCTYPE svg PUBLIC "-//W3C//DTD SVG 20010904//EN" "http://www.w3.org/TR/2001/REC-SVG-20010904/DTD/svg10.dtd">
<svg version="1.0" xmlns="http://www.w3.org/2000/svg" viewBox="0 0 250.000000 250.000000" preserveAspectRatio="xMidYMid meet">
  <g transform="translate(0.000000,250.000000) scale(0.100000,-0.100000)" fill="#000000" stroke="none">
    <path d="M1120 2474 c-295 -38 -530 -152 -736 -358 -182 -182 -286 -373 -340
    -626 -25 -119 -26 -363 0 -480 55 -254 158 -444 340 -626 182 -182 372 -285
    626 -340 117 -26 361 -25 480 0 253 54 444 158 626 340 182 182 286 373 340
    626 25 118 25 362 0 480 -54 253 -158 444 -340 626 -179 179 -361 279 -606
    335 -83 19 -315 32 -390 23z m888 -647 c88 -87 101 -111 82 -148 -16 -30
    -1058 -1072 -1087 -1088 -13 -6 -33 -9 -46 -6 -13 4 -144 127 -290 274 -226
    226 -267 271 -267 296 0 23 18 47 88 117 126 126 115 129 318 -74 l163 -161
    48 44 c26 24 208 204 403 400 421 423 443 443 479 434 14 -3 63 -43 109 -88z"/>
  </g>
</svg>
