<?xml version="1.0" standalone="no"?>
<!DOCTYPE svg PUBLIC "-//W3C//DTD SVG 20010904//EN" "http://www.w3.org/TR/2001/REC-SVG-20010904/DTD/svg10.dtd">
<svg version="1.0" xmlns="http://www.w3.org/2000/svg" viewBox="0 0 510.000000 510.000000"
     preserveAspectRatio="xMidYMid meet">
    <g transform="translate(0.000000,510.000000) scale(0.100000,-0.100000)" fill="#000000" stroke="none">
        <path d="M2305 5089 c-411 -42 -811 -185 -1146 -408 -173 -115 -274 -197 -408
-332 -330 -330 -563 -739 -674 -1184 -58 -232 -71 -349 -71 -615 0 -266 13
-383 71 -615 69 -277 185 -541 341 -775 115 -172 196 -272 328 -405 389 -391
871 -637 1425 -727 179 -29 543 -31 724 -5 1041 152 1880 908 2129 1920 57
230 71 349 70 617 -1 266 -18 404 -79 637 -211 803 -813 1462 -1600 1751 -131
48 -359 105 -505 127 -126 19 -479 27 -605 14z m475 -514 c961 -116 1705 -873
1800 -1834 82 -833 -376 -1649 -1137 -2022 -747 -366 -1629 -242 -2257 319
-676 604 -867 1591 -466 2407 379 772 1218 1232 2060 1130z"/>
        <path d="M1545 3550 c-111 -36 -203 -126 -245 -237 -31 -82 -25 -206 13 -284
34 -70 116 -152 186 -186 78 -38 202 -44 284 -13 213 80 314 319 218 515 -86
174 -283 263 -456 205z"/>
        <path d="M3349 3556 c-149 -40 -271 -184 -285 -337 -16 -164 91 -328 253 -389
82 -31 207 -25 284 13 70 34 152 116 186 186 38 77 44 202 13 284 -70 185
-269 292 -451 243z"/>
        <path d="M1100 2034 c0 -3 18 -44 40 -91 216 -462 625 -788 1120 -894 151 -33
429 -33 580 0 495 106 904 432 1120 894 22 47 40 88 40 91 0 3 -652 6 -1450 6
-797 0 -1450 -3 -1450 -6z"/>
    </g>
</svg>
