<?xml version="1.0" encoding="iso-8859-1"?>
<!-- Generator: Adobe Illustrator 16.0.0, SVG Export Plug-In . SVG Version: 6.00 Build 0)  -->
<!DOCTYPE svg PUBLIC "-//W3C//DTD SVG 1.1//EN" "http://www.w3.org/Graphics/SVG/1.1/DTD/svg11.dtd">
<svg version="1.1" id="Capa_1" xmlns="http://www.w3.org/2000/svg" xmlns:xlink="http://www.w3.org/1999/xlink" x="0px" y="0px"
	 viewBox="0 0 510 510" style="enable-background:new 0 0 510 510;" xml:space="preserve">
<g>
	<g id="mood">
		<path d="M255,0C114.75,0,0,114.75,0,255s114.75,255,255,255s255-114.75,255-255S395.25,0,255,0z M344.25,153
			c20.4,0,38.25,17.85,38.25,38.25s-17.85,38.25-38.25,38.25S306,211.65,306,191.25S323.85,153,344.25,153z M165.75,153
			c20.4,0,38.25,17.85,38.25,38.25s-17.85,38.25-38.25,38.25s-38.25-17.85-38.25-38.25S145.35,153,165.75,153z M255,408
			c-66.3,0-122.4-43.35-142.8-102h285.6C377.4,364.65,321.3,408,255,408z"/>
	</g>
</g>
</svg>
