<?xml version="1.0" standalone="no"?>
<!DOCTYPE svg PUBLIC "-//W3C//DTD SVG 20010904//EN" "http://www.w3.org/TR/2001/REC-SVG-20010904/DTD/svg10.dtd">
<svg version="1.0" xmlns="http://www.w3.org/2000/svg" viewBox="0 0 512.000000 512.000000"
     preserveAspectRatio="xMidYMid meet">
    <g transform="translate(0.000000,512.000000) scale(0.100000,-0.100000)"
       fill="#000000" stroke="none">
        <path d="M401 5059 c-169 -33 -308 -175 -341 -348 -14 -73 -14 -1509 0 -1582
    34 -178 171 -315 349 -349 70 -13 1494 -14 1575 0 183 30 326 173 356 356 14
    81 13 1505 0 1575 -34 178 -171 315 -349 349 -66 12 -1526 12 -1590 -1z m1632
    -239 c21 -14 50 -43 65 -64 l27 -39 0 -797 0 -796 -25 -37 c-14 -21 -43 -50
    -64 -65 l-39 -27 -797 0 -797 0 -39 27 c-21 15 -50 44 -64 65 l-25 37 -3 775
    c-2 517 0 788 7 812 13 42 71 106 115 125 25 11 174 13 817 11 l785 -2 37 -25z"/>
        <path d="M3121 5059 c-169 -33 -308 -175 -341 -348 -14 -73 -14 -1509 0 -1582
    34 -181 176 -320 356 -349 81 -14 1505 -13 1575 0 178 34 315 171 349 349 13
    70 14 1494 0 1575 -29 180 -168 322 -349 356 -66 12 -1526 12 -1590 -1z m1632
    -239 c21 -14 50 -43 65 -64 l27 -39 0 -797 0 -796 -25 -37 c-14 -21 -43 -50
    -64 -65 l-39 -27 -797 0 -797 0 -39 27 c-21 15 -50 44 -64 65 l-25 37 -3 775
    c-2 517 0 788 7 812 13 42 71 106 115 125 25 11 174 13 817 11 l785 -2 37 -25z"/>
        <path d="M401 2339 c-169 -33 -308 -175 -341 -348 -14 -73 -14 -1509 0 -1582
    34 -181 176 -320 356 -349 81 -14 1505 -13 1575 0 178 34 315 171 349 349 13
    70 14 1494 0 1575 -29 180 -168 322 -349 356 -66 12 -1526 12 -1590 -1z m1632
    -239 c21 -14 50 -43 65 -64 l27 -39 0 -797 0 -796 -25 -37 c-14 -21 -43 -50
    -64 -65 l-39 -27 -797 0 -797 0 -39 27 c-21 15 -50 44 -64 65 l-25 37 -3 775
    c-2 517 0 788 7 812 13 42 71 106 115 125 25 11 174 13 817 11 l785 -2 37 -25z"/>
        <path d="M3121 2339 c-169 -33 -308 -175 -341 -348 -14 -73 -14 -1509 0 -1582
    34 -181 176 -320 356 -349 78 -13 1490 -13 1568 0 183 30 326 173 356 356 13
    78 13 1490 0 1568 -29 180 -168 322 -349 356 -66 12 -1526 12 -1590 -1z m1632
    -239 c21 -14 50 -43 65 -64 l27 -39 0 -797 0 -796 -25 -37 c-14 -21 -43 -50
    -64 -65 l-39 -27 -797 0 -797 0 -39 27 c-21 15 -50 44 -64 65 l-25 37 -3 775
    c-2 517 0 788 7 812 13 42 71 106 115 125 25 11 174 13 817 11 l785 -2 37 -25z"/>
    </g>
</svg>
