<?xml version="1.0" standalone="no"?>
<!DOCTYPE svg PUBLIC "-//W3C//DTD SVG 20010904//EN" "http://www.w3.org/TR/2001/REC-SVG-20010904/DTD/svg10.dtd">
<svg version="1.0" xmlns="http://www.w3.org/2000/svg" viewBox="0 0 266.000000 198.000000" preserveAspectRatio="xMidYMid meet">
  <g transform="translate(0.000000,198.000000) scale(0.100000,-0.100000)" fill="#000000" stroke="none">
    <path d="M1385 1973 c-364 -25 -730 -157 -990 -358 -325 -252 -465 -600 -360
    -895 115 -318 414 -553 844 -661 577 -146 1208 -7 1565 345 97 95 178 207 202
    278 33 101 1 200 -95 292 -66 62 -110 81 -326 137 -187 49 -285 95 -322 151
    -58 87 -27 140 135 228 207 113 235 139 234 216 -3 143 -163 233 -471 264 -96
    9 -299 11 -416 3z m150 -248 c77 -45 112 -163 72 -241 -90 -174 -357 -115
    -357 79 0 153 152 240 285 162z m-832 -259 c18 -7 47 -29 64 -49 110 -125 25
    -310 -142 -311 -60 0 -105 23 -148 77 -56 68 -46 191 19 248 55 48 142 63 207
    35z m1405 -562 c99 -59 117 -194 36 -284 -113 -125 -324 -45 -324 123 0 59 18
    103 58 140 64 61 148 69 230 21z m-1411 -65 c59 -22 122 -108 123 -168 1 -123
    -123 -223 -239 -191 -50 13 -109 63 -127 107 -29 68 -9 170 42 214 53 46 137
    62 201 38z m746 -253 c39 -16 82 -61 96 -99 16 -40 14 -123 -3 -156 -36 -69
    -132 -120 -199 -106 -96 21 -160 96 -160 189 0 28 7 65 16 81 19 37 64 81 97
    94 37 14 116 13 153 -3z"/>
  </g>
</svg>
