<?xml version="1.0" encoding="utf-8"?>
<!-- Svg Vector Icons : http://www.onlinewebfonts.com/icon -->
<!DOCTYPE svg PUBLIC "-//W3C//DTD SVG 1.1//EN" "http://www.w3.org/Graphics/SVG/1.1/DTD/svg11.dtd">
<svg version="1.1" xmlns="http://www.w3.org/2000/svg" xmlns:xlink="http://www.w3.org/1999/xlink" x="0px" y="0px" viewBox="0 0 1000 1000" enable-background="new 0 0 1000 1000" xml:space="preserve">
<metadata> Svg Vector Icons : http://www.onlinewebfonts.com/icon </metadata>
<g><path d="M963,500c0,22.6-7.8,41.7-23.3,57.2L530.2,966.7C513.8,982.2,494.8,990,473,990c-21.4,0-40.3-7.8-56.6-23.3l-47.2-47.2c-15.9-15.9-23.9-35-23.9-57.2c0-22.2,8-41.3,23.9-57.2l184.3-184.3H110.6c-21.8,0-39.5-7.9-53.2-23.6C43.9,581.5,37,562.5,37,540.3v-80.5c0-22.2,6.8-41.2,20.4-56.9c13.6-15.7,31.3-23.6,53.2-23.6h442.8L369.2,194.3c-15.9-15.1-23.9-34-23.9-56.6c0-22.6,8-41.5,23.9-56.6l47.2-47.2C432.3,18,451.1,10,473,10c22.2,0,41.3,8,57.2,23.9l409.5,409.5C955.2,458.1,963,476.9,963,500z"/></g>
</svg>