<?xml version="1.0" standalone="no"?>
<!DOCTYPE svg PUBLIC "-//W3C//DTD SVG 20010904//EN"
 "http://www.w3.org/TR/2001/REC-SVG-20010904/DTD/svg10.dtd">
<svg version="1.0" xmlns="http://www.w3.org/2000/svg" viewBox="0 0 300.000000 281.000000" preserveAspectRatio="xMidYMid meet">
  <g transform="translate(0.000000,281.000000) scale(0.100000,-0.100000)" fill="#000000" stroke="none">
    <path d="M1753 2666 c-53 -47 -85 -123 -118 -274 -33 -152 -60 -216 -124 -285
    -27 -30 -101 -119 -164 -198 -158 -198 -234 -273 -289 -287 -24 -6 -55 -23
    -68 -37 l-25 -27 -3 -580 -2 -580 32 -32 c27 -27 46 -35 101 -45 37 -6 161
    -43 275 -82 125 -42 266 -82 357 -100 146 -30 156 -30 380 -27 211 3 235 6
    287 27 132 52 215 171 226 323 4 70 9 87 39 130 46 70 66 143 62 236 -3 69 0
    83 25 132 34 65 45 169 27 247 -12 48 -11 51 23 108 42 70 51 105 51 205 -1
    59 -6 86 -25 125 -34 67 -99 131 -168 163 -57 27 -59 27 -324 30 -148 2 -268
    6 -268 8 0 2 22 49 50 104 65 130 90 221 90 330 0 163 -33 264 -108 332 -51
    46 -139 79 -228 85 -71 5 -72 5 -111 -31z"/>
    <path d="M188 1591 l-33 -29 -3 -576 c-3 -638 -5 -618 62 -650 49 -23 531 -24
    576 -1 63 32 60 3 60 640 0 534 -2 582 -18 601 -33 42 -50 44 -336 44 l-276 0
    -32 -29z m326 -845 c44 -18 66 -52 66 -101 -1 -97 -107 -140 -176 -71 -57 57
    -43 140 30 172 39 17 40 17 80 0z"/>
  </g>
</svg>
