<?xml version="1.0" standalone="no"?>
<!DOCTYPE svg PUBLIC "-//W3C//DTD SVG 20010904//EN" "http://www.w3.org/TR/2001/REC-SVG-20010904/DTD/svg10.dtd">
<svg version="1.0" xmlns="http://www.w3.org/2000/svg" viewBox="0 0 500.000000 500.000000" preserveAspectRatio="xMidYMid meet">
  <g transform="translate(0.000000,500.000000) scale(0.100000,-0.100000)" fill="#000000" stroke="none">
    <path d="M2653 4866 c-63 -20 -106 -51 -167 -116 -96 -105 -141 -219 -216
    -555 -21 -95 -47 -190 -59 -212 -11 -22 -67 -95 -125 -163 -58 -67 -145 -172
    -193 -234 -132 -169 -269 -332 -330 -392 l-55 -54 -372 0 c-395 0 -471 -6
    -542 -40 -61 -30 -132 -104 -163 -170 l-26 -55 0 -965 0 -965 25 -50 c31 -64
    111 -144 175 -175 l50 -25 470 -5 c413 -5 477 -8 525 -24 30 -9 184 -60 341
    -112 318 -105 536 -163 709 -191 96 -15 176 -18 475 -18 342 0 365 1 450 23
    351 89 570 346 592 696 5 79 10 97 35 134 44 64 96 181 114 259 10 40 18 120
    19 193 2 112 5 131 29 184 59 129 83 326 55 455 -10 48 -9 54 20 104 16 29 44
    95 62 147 41 123 51 276 25 394 -45 201 -195 388 -386 482 -116 58 -162 64
    -482 64 -159 0 -288 3 -288 6 0 4 15 45 34 93 70 175 81 234 81 451 0 211 -14
    309 -60 423 -107 266 -332 410 -660 422 -86 4 -132 1 -162 -9z m304 -361 c163
    -49 241 -220 231 -500 -6 -141 -25 -207 -122 -426 -35 -79 -75 -180 -89 -224
    -30 -91 -51 -201 -42 -215 4 -6 193 -10 515 -10 594 0 576 3 679 -99 126 -124
    144 -265 57 -456 -34 -73 -91 -135 -125 -135 -17 0 -16 -7 14 -65 87 -173 68
    -373 -49 -502 l-35 -40 18 -49 c56 -149 22 -323 -86 -433 l-55 -56 -2 -145
    c-2 -173 -19 -229 -96 -313 -56 -61 -118 -98 -210 -124 -94 -26 -664 -26 -815
    0 -190 33 -391 89 -704 194 -320 107 -418 132 -528 133 l-63 0 0 875 0 875 68
    0 c56 0 80 5 129 30 87 43 240 193 384 376 221 281 259 328 342 422 145 165
    178 239 252 557 43 188 68 265 104 319 l25 39 76 -6 c41 -3 98 -13 127 -22z
    m-1959 -3136 c131 -64 132 -243 1 -309 -145 -74 -304 83 -230 228 23 45 46 66
    91 86 48 21 86 20 138 -5z"/>
  </g>
</svg>
