<?xml version="1.0" standalone="no"?>
<!DOCTYPE svg PUBLIC "-//W3C//DTD SVG 20010904//EN" "http://www.w3.org/TR/2001/REC-SVG-20010904/DTD/svg10.dtd">
<svg version="1.0" xmlns="http://www.w3.org/2000/svg" viewBox="0 0 510.000000 510.000000"
     preserveAspectRatio="xMidYMid meet">
    <g transform="translate(0.000000,510.000000) scale(0.100000,-0.100000)"
       fill="#000000" stroke="none">
        <path d="M2327 5089 c-386 -27 -823 -182 -1177 -416 -170 -113 -284 -208 -430
    -359 -201 -208 -340 -408 -466 -669 -106 -219 -181 -454 -226 -705 -18 -104
    -18 -676 0 -780 96 -537 327 -998 687 -1369 295 -304 605 -505 988 -642 322
    -115 595 -153 1007 -138 585 22 1198 299 1640 741 331 332 553 724 670 1182
    57 223 70 338 70 611 0 264 -14 402 -61 592 -118 483 -348 885 -705 1233 -255
    249 -528 428 -840 550 -193 76 -451 142 -624 159 -138 14 -408 19 -533 10z
    m404 -509 c375 -38 740 -179 1042 -403 100 -74 278 -245 360 -347 409 -507
    552 -1173 386 -1799 -186 -703 -746 -1263 -1449 -1450 -190 -50 -295 -64 -505
    -65 -217 -1 -323 11 -511 59 -699 178 -1260 718 -1460 1403 -166 573 -73 1192
    253 1687 85 129 166 226 284 340 261 253 564 426 900 514 243 64 472 84 700
    61z"/>
        <path d="M1577 3559 c-106 -25 -213 -112 -262 -214 -26 -53 -29 -71 -30 -155
    0 -88 3 -101 33 -162 38 -78 111 -149 192 -187 47 -22 69 -26 150 -26 85 0
    101 3 155 29 115 57 192 161 216 289 45 245 -209 484 -454 426z"/>
        <path d="M3352 3554 c-71 -19 -99 -34 -160 -89 -36 -32 -63 -70 -89 -123 -35
    -69 -38 -83 -37 -157 0 -69 5 -91 32 -148 38 -82 109 -154 189 -193 51 -25 70
    -28 153 -29 88 0 101 3 161 32 80 39 150 111 187 191 23 49 27 70 27 152 -1
    83 -4 102 -29 153 -53 109 -156 191 -274 216 -67 14 -94 13 -160 -5z"/>
        <path d="M2410 2300 c-255 -19 -538 -130 -773 -302 -109 -81 -266 -242 -349
    -358 -37 -52 -95 -149 -128 -215 l-60 -120 27 -6 c16 -4 67 -7 115 -8 l87 -1
    123 123 c228 228 501 378 810 444 118 25 458 26 576 0 312 -67 581 -215 809
    -444 l123 -123 87 1 c49 1 100 4 116 8 l27 6 -60 120 c-159 317 -427 582 -736
    731 -249 119 -501 165 -794 144z"/>
    </g>
</svg>
