<?xml version="1.0" standalone="no"?>
<!DOCTYPE svg PUBLIC "-//W3C//DTD SVG 20010904//EN"
 "http://www.w3.org/TR/2001/REC-SVG-20010904/DTD/svg10.dtd">
<svg version="1.0" xmlns="http://www.w3.org/2000/svg"
 viewBox="0 0 256.000000 256.000000"
 preserveAspectRatio="xMidYMid meet">
<g transform="translate(0.000000,256.000000) scale(0.100000,-0.100000)"
fill="#000000" stroke="none">
<path d="M1056 2534 c-477 -86 -874 -453 -1000 -923 -84 -312 -45 -652 105
-931 184 -341 527 -589 907 -655 110 -20 326 -19 438 0 255 45 488 168 680
359 185 184 309 420 353 670 16 88 14 380 -3 469 -98 512 -516 922 -1033 1012
-108 19 -340 18 -447 -1z m429 -969 l0 -460 -192 -3 -193 -2 0 465 0 465 193
-2 192 -3 0 -460z m-125 -665 c40 -11 114 -81 129 -123 16 -42 13 -124 -5
-163 -33 -69 -119 -124 -194 -124 -111 0 -209 97 -210 208 -1 143 136 242 280
202z"/>
</g>
</svg>
